/* XPM */
static char * close_inactive_xpm[] = {
"40 40 5 1",
" 	c None",
".	c #444444",
"+	c #57595E",
"@	c #8F8F8F",
"#	c #939393",
".......................................+",
"........................................",
"........................................",
"........................................",
"........................................",
"........................................",
"........................................",
"........................................",
"........................................",
"........................................",
"........................................",
"........................................",
"........................................",
"..............@@.........@@.............",
"..............@@@.......@@@.............",
"...............@@@.....@@@..............",
"................@@@...@@@...............",
".................@@@@@@@................",
"..................@@@@@.................",
"..................#@@@#.................",
"..................@@@@@.................",
".................@@@@@@@................",
"................@@@...@@@...............",
"...............@@@.....@@@..............",
"..............@@@.......@@@.............",
"..............@@.........@@.............",
"........................................",
"........................................",
"........................................",
"........................................",
"........................................",
"........................................",
"........................................",
"........................................",
"........................................",
"........................................",
"........................................",
"........................................",
"........................................",
"........................................"};
