/* XPM */
static char * close_prelight_xpm[] = {
"40 40 4 1",
" 	c None",
".	c #444444",
"+	c #515151",
"@	c #D0D0D0",
".+.+.+.+.+.+.+.+.+.+.+.+.+.+.+.+.+.+.+.+",
"+.+.+.+.+.+.+.+.+.+.+.+.+.+.+.+.+.+.+.+.",
".+.+.+.+.+.+.+.+.+.+.+.+.+.+.+.+.+.+.+.+",
"+.+.+.+.+.+.+.+.+.+.+.+.+.+.+.+.+.+.+.+.",
".+.+.+.+.+.+.+.+.+.+.+.+.+.+.+.+.+.+.+.+",
"+.+.+.+.+.+.+.+.+.+.+.+.+.+.+.+.+.+.+.+.",
".+.+.+.+.+.+.+.+.+.+.+.+.+.+.+.+.+.+.+.+",
"+.+.+.+.+.+.+.+.+.+.+.+.+.+.+.+.+.+.+.+.",
".+.+.+.+.+.+.+.+.+.+.+.+.+.+.+.+.+.+.+.+",
"+.+.+.+.+.+.+.+.+.+.+.+.+.+.+.+.+.+.+.+.",
".+.+.+.+.+.+.+.+.+.+.+.+.+.+.+.+.+.+.+.+",
"+.+.+.+.+.+.+.+.+.+.+.+.+.+.+.+.+.+.+.+.",
".+.+.+.+.+.+.+@+.+.+.+.+.@.+.+.+.+.+.+.+",
"+.+.+.+.+.+.+@@@+.+.+.+.@@@.+.+.+.+.+.+.",
".+.+.+.+.+.+@@@@@+.+.+.@@@@@.+.+.+.+.+.+",
"+.+.+.+.+.+.+@@@@@+.+.@@@@@.+.+.+.+.+.+.",
".+.+.+.+.+.+.+@@@@@+.@@@@@.+.+.+.+.+.+.+",
"+.+.+.+.+.+.+.+@@@@@@@@@@.+.+.+.+.+.+.+.",
".+.+.+.+.+.+.+.+@@@@@@@@.+.+.+.+.+.+.+.+",
"+.+.+.+.+.+.+.+.+@@@@@@.+.+.+.+.+.+.+.+.",
".+.+.+.+.+.+.+.+.@@@@@@+.+.+.+.+.+.+.+.+",
"+.+.+.+.+.+.+.+.@@@@@@@@+.+.+.+.+.+.+.+.",
".+.+.+.+.+.+.+.@@@@@@@@@@+.+.+.+.+.+.+.+",
"+.+.+.+.+.+.+.@@@@@.+@@@@@+.+.+.+.+.+.+.",
".+.+.+.+.+.+.@@@@@.+.+@@@@@+.+.+.+.+.+.+",
"+.+.+.+.+.+.@@@@@.+.+.+@@@@@+.+.+.+.+.+.",
".+.+.+.+.+.+.@@@.+.+.+.+@@@+.+.+.+.+.+.+",
"+.+.+.+.+.+.+.@.+.+.+.+.+@+.+.+.+.+.+.+.",
".+.+.+.+.+.+.+.+.+.+.+.+.+.+.+.+.+.+.+.+",
"+.+.+.+.+.+.+.+.+.+.+.+.+.+.+.+.+.+.+.+.",
".+.+.+.+.+.+.+.+.+.+.+.+.+.+.+.+.+.+.+.+",
"+.+.+.+.+.+.+.+.+.+.+.+.+.+.+.+.+.+.+.+.",
".+.+.+.+.+.+.+.+.+.+.+.+.+.+.+.+.+.+.+.+",
"+.+.+.+.+.+.+.+.+.+.+.+.+.+.+.+.+.+.+.+.",
".+.+.+.+.+.+.+.+.+.+.+.+.+.+.+.+.+.+.+.+",
"+.+.+.+.+.+.+.+.+.+.+.+.+.+.+.+.+.+.+.+.",
".+.+.+.+.+.+.+.+.+.+.+.+.+.+.+.+.+.+.+.+",
"+.+.+.+.+.+.+.+.+.+.+.+.+.+.+.+.+.+.+.+.",
".+.+.+.+.+.+.+.+.+.+.+.+.+.+.+.+.+.+.+.+",
"+.+.+.+.+.+.+.+.+.+.+.+.+.+.+.+.+.+.+.+."};
