/* XPM */
static char * maximize_pressed_xpm[] = {
"40 40 4 1",
" 	c None",
".	c #444444",
"+	c #515151",
"@	c #FFFFFF",
".+.+.+.+.+.+.+.+.+.+.+.+.+.+.+.+.+.+.+.+",
"+.+.+.+.+.+.+.+.+.+.+.+.+.+.+.+.+.+.+.+.",
".+.+.+.+.+.+.+.+.+.+.+.+.+.+.+.+.+.+.+.+",
"+.+.+.+.+.+.+.+.+.+.+.+.+.+.+.+.+.+.+.+.",
".+.+.+.+.+.+.+.+.+.+.+.+.+.+.+.+.+.+.+.+",
"+.+.+.+.+.+.+.+.+.+.+.+.+.+.+.+.+.+.+.+.",
".+.+.+.+.+.+.+.+.+.+.+.+.+.+.+.+.+.+.+.+",
"+.+.+.+.+.+.+.+.+.+.+.+.+.+.+.+.+.+.+.+.",
".+.+.+.+.+.+.+.+.+.+.+.+.+.+.+.+.+.+.+.+",
"+.+.+.+.+.+.+.+.+.+.+.+.+.+.+.+.+.+.+.+.",
".+.+.+.+.+.+.+.+.+.+.+.+.+.+.+.+.+.+.+.+",
"+.+.+.+.+.+.+.+.+.+.+.+.+.+.+.+.+.+.+.+.",
".+.+.+.+.+.+@@@@@@@@@@@@@@@@.+.+.+.+.+.+",
"+.+.+.+.+.+.@@@@@@@@@@@@@@@@+.+.+.+.+.+.",
".+.+.+.+.+.+@@@@@@@@@@@@@@@@.+.+.+.+.+.+",
"+.+.+.+.+.+.@@@.+.+.+.+.+@@@+.+.+.+.+.+.",
".+.+.+.+.+.+@@@+.+.+.+.+.@@@.+.+.+.+.+.+",
"+.+.+.+.+.+.@@@.+.+.+.+.+@@@+.+.+.+.+.+.",
".+.+.+.+.+.+@@@+.+.+.+.+.@@@.+.+.+.+.+.+",
"+.+.+.+.+.+.@@@.+.+.+.+.+@@@+.+.+.+.+.+.",
".+.+.+.+.+.+@@@+.+.+.+.+.@@@.+.+.+.+.+.+",
"+.+.+.+.+.+.@@@.+.+.+.+.+@@@+.+.+.+.+.+.",
".+.+.+.+.+.+@@@+.+.+.+.+.@@@.+.+.+.+.+.+",
"+.+.+.+.+.+.@@@.+.+.+.+.+@@@+.+.+.+.+.+.",
".+.+.+.+.+.+@@@+.+.+.+.+.@@@.+.+.+.+.+.+",
"+.+.+.+.+.+.@@@@@@@@@@@@@@@@+.+.+.+.+.+.",
".+.+.+.+.+.+@@@@@@@@@@@@@@@@.+.+.+.+.+.+",
"+.+.+.+.+.+.@@@@@@@@@@@@@@@@+.+.+.+.+.+.",
".+.+.+.+.+.+.+.+.+.+.+.+.+.+.+.+.+.+.+.+",
"+.+.+.+.+.+.+.+.+.+.+.+.+.+.+.+.+.+.+.+.",
".+.+.+.+.+.+.+.+.+.+.+.+.+.+.+.+.+.+.+.+",
"+.+.+.+.+.+.+.+.+.+.+.+.+.+.+.+.+.+.+.+.",
".+.+.+.+.+.+.+.+.+.+.+.+.+.+.+.+.+.+.+.+",
"+.+.+.+.+.+.+.+.+.+.+.+.+.+.+.+.+.+.+.+.",
".+.+.+.+.+.+.+.+.+.+.+.+.+.+.+.+.+.+.+.+",
"+.+.+.+.+.+.+.+.+.+.+.+.+.+.+.+.+.+.+.+.",
".+.+.+.+.+.+.+.+.+.+.+.+.+.+.+.+.+.+.+.+",
"+.+.+.+.+.+.+.+.+.+.+.+.+.+.+.+.+.+.+.+.",
".+.+.+.+.+.+.+.+.+.+.+.+.+.+.+.+.+.+.+.+",
"+.+.+.+.+.+.+.+.+.+.+.+.+.+.+.+.+.+.+.+."};
