/* XPM */
static char * maximize_inactive_xpm[] = {
"40 40 3 1",
" 	c None",
".	c #444444",
"+	c #8F8F8F",
"........................................",
"........................................",
"........................................",
"........................................",
"........................................",
"........................................",
"........................................",
"........................................",
"........................................",
"........................................",
"........................................",
"........................................",
"........................................",
"..............+++++++++++++.............",
"..............+...........+.............",
"..............+...........+.............",
"..............+...........+.............",
"..............+...........+.............",
"..............+...........+.............",
"..............+...........+.............",
"..............+...........+.............",
"..............+...........+.............",
"..............+...........+.............",
"..............+...........+.............",
"..............+...........+.............",
"..............+++++++++++++.............",
"........................................",
"........................................",
"........................................",
"........................................",
"........................................",
"........................................",
"........................................",
"........................................",
"........................................",
"........................................",
"........................................",
"........................................",
"........................................",
"........................................"};
