/* XPM */
static char * maximize_pressed_xpm[] = {
"40 40 4 1",
" 	c None",
".	c #353945",
"+	c #FFFFFF",
"@	c #FCFCFC",
"........................................",
"........................................",
"........................................",
"........................................",
"........................................",
"........................................",
"........................................",
"........................................",
"........................................",
"........................................",
"........................................",
"........................................",
"........................................",
"..............+++++++++++++.............",
"..............@...........@.............",
"..............+...........+.............",
"..............+...........+.............",
"..............+...........+.............",
"..............+...........+.............",
"..............+...........+.............",
"..............+...........+.............",
"..............+...........+.............",
"..............+...........+.............",
"..............+...........+.............",
"..............@...........@.............",
"..............+++++++++++++.............",
"........................................",
"........................................",
"........................................",
"........................................",
"........................................",
"........................................",
"........................................",
"........................................",
"........................................",
"........................................",
"........................................",
"........................................",
"........................................",
"........................................"};
